<?xml version="1.0" encoding="utf-8"?>
<!-- Generator: Adobe Illustrator 24.1.1, SVG Export Plug-In . SVG Version: 6.00 Build 0)  -->
<svg version="1.1" id="Layer_1" xmlns="http://www.w3.org/2000/svg" xmlns:xlink="http://www.w3.org/1999/xlink" x="0px" y="0px"
	 viewBox="0 0 512 512" style="enable-background:new 0 0 512 512;" xml:space="preserve">
<style type="text/css">
	.st0{fill:white;}
</style>
<g>
	<path class="st0" d="M116.6,452.2c-2.4,29.1,12.2,50.8,39.7,58.1c22.6,6,48.6-4.6,59.8-24.7c3.3-5.7,40.2-100.6,82.1-210.9
		C368.5,89.4,375,73.3,384.8,63.3c6-6.2,10.9-12.5,10.9-14.1c0-1.6-5.2-7.6-11.4-13c-25-22.6-83.7-41.3-108.7-34.8
		c-4.1,1.1-4.9,4.4-4.9,16.9c0,15.8-2.7,25.5-19,66.8c-4.6,12-12.3,32.6-16.8,46.2c-4.4,13.3-11.7,32.3-16,42.1
		c-4.1,9.8-13,32.4-19.9,50.3c-6.8,17.9-19.5,51.9-28.5,75.8c-9,23.6-19,46.2-22.6,49.7L116.6,452.2z M337.3,17.6
		c27.4,11.4,41.6,25.3,30.2,29.6c-10.9,4.1-59.5-13.3-72.3-26.1c-4.9-4.9-5.2-6.5-2.4-10.1C297.3,5.9,315.3,8.4,337.3,17.6
		L337.3,17.6z M292.2,52.2c9.8,10.3,29.6,17.7,51.4,18.5c10.9,0.5,19.6,1.1,19.6,1.6c0,0.3-1.9,3.5-4.1,6.8
		c-2.2,3.3-11.1,25.3-20.1,48.6c-14.1,37-17.7,44-27.4,53c-14.9,13.6-38.6,26.9-55.7,31c-7.3,1.9-18.7,5.4-25.3,8.4
		c-6.5,2.7-13,4.9-14.1,4.9c-2.4,0,5.2-22.3,31.3-89.7c8.4-21.7,19.6-50.8,24.7-64.7c5.4-13.6,10.6-25,11.7-25
		C285.1,45.6,288.9,48.6,292.2,52.2L292.2,52.2z M316.1,189.1c-0.8,1.1-26.1,66.8-56,145.9c-48.4,127.7-55.7,145.1-64.2,152.7
		c-5.2,4.9-11.7,9-14.1,8.7c-3.3,0-2.2-1.1,2.7-3c4.4-1.6,7.3-4.6,7.3-7.6c0-2.7,1.1-5.7,2.5-6.8c1.3-0.8,3.5-5.4,4.6-10.1
		c0.8-4.9,2.7-10.6,3.8-13c4.1-7.6,16.3-39.4,16.3-41.6c0-1.3,1.6-6.3,3.8-10.9c2.2-4.9,9-22.3,15.2-38.6
		c6.2-16.6,13.8-36.7,16.9-44.8c3.3-8.1,6.8-16,8.1-17.4c1.1-1.6,2.2-5.2,2.2-7.9c0-2.7,1.9-9.2,4.1-14.4
		c8.1-18.5,11.7-27.2,16.3-40.5c2.4-7.6,5.7-15.8,7-18.2c2.7-5.2,3.3-13,1.1-13c-0.8,0-4.9,1.9-9,4.4c-6.5,3.8-6.5,3.8,0.8-1.9
		c4.6-3.5,12.5-10.3,17.7-15.2C312,187.7,319.1,183.9,316.1,189.1L316.1,189.1z M240.8,227.7l-4.4,2.7c-5.2,0-12.8,17.7-12.8,29.1
		c0.3,4.9-0.8,9-2.2,9c-4.4,0-13.8,22.3-15.2,36.7c-1.4,12.5-0.8,14.7,3.8,17.4c7.3,3.8,9.2,12.2,4.4,19c-4.1,6-15.5,7.6-18.5,3
		c-4.1-6.5-7-2.2-5.4,7.6c1.3,9.2,0.8,10.9-4.9,13.3c-4.4,2.2-8.4,7.9-11.4,16.3c-9.5,25.8-18.2,48.6-23.4,62
		c-3,7.3-6.3,19.6-7.1,26.6c-1.3,11.1-0.5,13.8,4.9,20.1l6.5,7.4l-8.7-6c-9-6.3-19.9-25.6-19.9-35.3c0-3.3,7.9-27.2,17.7-53.5
		c9.8-26.1,17.7-49.2,17.7-50.8c0-1.9,9-12.3,19.5-23.1c10.9-10.9,17.9-19.8,15.8-19.8c-2.2,0-7.9,3.8-12.8,8.7
		c-4.9,4.9-9,7.4-9,5.5c0-8.2,25.6-67.9,32.1-75c6-6.5,29.3-23.4,32.3-23.4L240.8,227.7L240.8,227.7z"/>
</g>
</svg>
